# Blender v2.76 (sub 0) OBJ File: 'hexpad.blend'
# www.blender.org
mtllib hexpad.mtl
o Cylinder
v 0.000000 -0.100000 -10.000000
v 0.000000 0.100000 -10.000000
v 8.660254 -0.100000 -5.000000
v 8.660254 0.100000 -5.000000
v 8.660254 -0.100000 5.000000
v 8.660254 0.100000 5.000000
v -0.000001 -0.100000 10.000000
v -0.000001 0.100000 10.000000
v -8.660254 -0.100000 4.999999
v -8.660254 0.100000 4.999999
v -8.660254 -0.100000 -4.999999
v -8.660254 0.100000 -4.999999
vt 0.054584 0.857143
vt 0.054584 0.571429
vt 0.109167 0.571429
vt 0.000000 1.000000
vt 0.000000 0.857143
vt 0.000000 0.571429
vt 0.945416 0.571429
vt 0.945416 0.428571
vt 1.000000 0.428571
vt 0.945416 0.142857
vt 0.709062 0.571429
vt 0.472708 0.142857
vt 0.945416 0.000000
vt 1.000000 0.000000
vt 1.000000 0.142857
vt 0.236354 0.000000
vt 0.236354 0.571429
vt 0.000000 0.428571
vt 0.109167 0.857143
vt 0.054584 1.000000
vt 1.000000 0.571429
vt 0.709062 0.000000
vt 0.472708 0.428571
vt 0.000000 0.142857
vn 0.500000 0.000000 -0.866000
vn 1.000000 0.000000 0.000000
vn 0.500000 0.000000 0.866000
vn -0.500000 0.000000 0.866000
vn 0.000000 1.000000 0.000000
vn -0.500000 0.000000 -0.866000
vn -1.000000 0.000000 0.000000
vn 0.000000 -1.000000 0.000000
usemtl None
s off
f 2/1/1 4/2/1 3/3/1
f 4/4/2 6/5/2 5/1/2
f 6/5/3 8/6/3 7/2/3
f 8/7/4 10/8/4 9/9/4
f 2/10/5 10/11/5 6/12/5
f 12/10/6 2/13/6 1/14/6
f 10/8/7 12/10/7 11/15/7
f 3/16/8 9/17/8 11/18/8
f 1/19/1 2/1/1 3/3/1
f 3/20/2 4/4/2 5/1/2
f 5/1/3 6/5/3 7/2/3
f 7/21/4 8/7/4 9/9/4
f 6/12/5 4/22/5 2/10/5
f 2/10/5 12/8/5 10/11/5
f 10/11/5 8/23/5 6/12/5
f 11/15/6 12/10/6 1/14/6
f 9/9/7 10/8/7 11/15/7
f 11/18/8 1/24/8 3/16/8
f 3/16/8 5/12/8 7/23/8
f 7/23/8 9/17/8 3/16/8
